# xmcd
#
# Track frame offsets:
#	150
#	10794
#	20615
#	32840
#	44900
#	55561
#	70538
#	83934
#	95979
#	105880
#	116157
#	125937
#	138865
#	151133
#	162404
#	172350
#	184600
#	199431
#	213219
#	230477
#	244179
#	259680
#	275600
#	292840
#	311720
#	327800
#
# Disc length: 4643 seconds
#
# Revision: 1
# Processed by: cddbd v1.5.2PL0 Copyright (c) Steve Scherf et al.
# Submitted via: audiograbber 1.83.01
#
DISCID=7d12211a
DTITLE=Ray Charles - Country and Western 59-86 [CD2)
DYEAR=1900
DGENRE=Country
TTITLE0=I'm movin' it on 
TTITLE1=Busted
TTITLE2=No one to cry to
TTITLE3=Move it on over
TTITLE4=Love's gonna live here
TTITLE5=I'm a fool to care
TTITLE6=Crying time
TTITLE7=Together again
TTITLE8=I've got a tiger by the tail
TTITLE9=I don't care
TTITLE10=Blue moon of Kentucky
TTITLE11=Don't let her know
TTITLE12=Please say you're fooling
TTITLE13=She's lonesome again
TTITLE14=A born loser
TTITLE15=A girl I used to know
TTITLE16=Here we go again
TTITLE17=When I stop dreamin'
TTITLE18=If you were mine
TTITLE19=Your love is so doggone good
TTITLE20=Don't change on me
TTITLE21=Till I can't take it anymore
TTITLE22=You've still got a place in my heart
TTITLE23=I keep it hid
TTITLE24=Sweet memories
TTITLE25=Sweet memories
EXTD=
EXTT0=
EXTT1=
EXTT2=
EXTT3=
EXTT4=
EXTT5=
EXTT6=
EXTT7=
EXTT8=
EXTT9=
EXTT10=
EXTT11=
EXTT12=
EXTT13=
EXTT14=
EXTT15=
EXTT16=
EXTT17=
EXTT18=
EXTT19=
EXTT20=
EXTT21=
EXTT22=
EXTT23=
EXTT24=
EXTT25=
PLAYORDER=
